<?xml version="1.0" encoding="utf-8"?>
<!-- Generator: Adobe Illustrator 23.0.3, SVG Export Plug-In . SVG Version: 6.00 Build 0)  -->
<svg version="1.1" id="Warstwa_1" xmlns="http://www.w3.org/2000/svg" xmlns:xlink="http://www.w3.org/1999/xlink" x="0px" y="0px"
	 viewBox="0 0 376.88 233.11" style="enable-background:new 0 0 376.88 233.11;" xml:space="preserve">
<style type="text/css">
	.st0{fill:#3D4A7D;}
	.st1{fill:#B3B9C7;}
</style>
<g>
	<g>
		<path class="st0" d="M107.06,104.44h17.04v29.94h-17.04v35.58h-38.8v-35.58H3.42l-2.3-23.72L68.25,2.65V2.3h38.8V104.44z
			 M38.08,104.44h30.17V52.85l-2.42,3.92L38.08,104.44z"/>
		<path class="st0" d="M247.44,101.45c0,22.65-5.09,40.11-15.26,52.39c-10.17,12.28-24.51,18.42-43.01,18.42
			c-18.65,0-33.09-6.18-43.3-18.54c-10.21-12.36-15.31-29.78-15.31-52.28V70.82c0-22.64,5.08-40.11,15.26-52.39
			C155.99,6.14,170.36,0,188.94,0c18.58,0,32.97,6.18,43.18,18.54c10.21,12.36,15.32,29.82,15.32,52.39V101.45z M208.63,65.86
			c0-12.05-1.58-21.05-4.72-27c-3.15-5.95-8.14-8.92-14.97-8.92c-6.68,0-11.53,2.76-14.57,8.29c-3.03,5.53-4.66,13.89-4.89,25.1
			v42.83c0,12.51,1.57,21.67,4.72,27.46c3.15,5.8,8.14,8.69,14.97,8.69c6.6,0,11.47-2.82,14.62-8.46
			c3.15-5.64,4.76-14.49,4.84-26.54V65.86z"/>
		<path class="st0" d="M359.83,104.44h17.04v29.94h-17.04v35.58h-38.8v-35.58H256.2l-2.3-23.72L321.03,2.65V2.3h38.8V104.44z
			 M290.86,104.44h30.17V52.85l-2.42,3.92L290.86,104.44z"/>
	</g>
	<g>
		<path class="st1" d="M81.35,193.8l0.39,4.52c2.67-3.49,6.35-5.23,11.05-5.23c4.03,0,7.04,1.2,9.03,3.6
			c1.99,2.4,3.02,6.01,3.09,10.83v24.82H92.83v-24.32c0-1.95-0.39-3.38-1.18-4.29s-2.22-1.37-4.29-1.37c-2.36,0-4.11,0.93-5.25,2.78
			v27.21H70.06V193.8H81.35z"/>
		<path class="st1" d="M107.16,212.71c0-3.85,0.75-7.27,2.25-10.27c1.5-3,3.66-5.31,6.47-6.93s6.11-2.42,9.9-2.42
			c5.79,0,10.35,1.79,13.69,5.36c3.34,3.57,5,8.43,5,14.58v0.43c0,6.01-1.67,10.77-5.02,14.3c-3.35,3.53-7.88,5.29-13.6,5.29
			c-5.5,0-9.93-1.64-13.26-4.93c-3.34-3.29-5.14-7.75-5.4-13.37L107.16,212.71z M119.21,213.46c0,3.56,0.56,6.17,1.68,7.83
			c1.12,1.66,2.78,2.49,4.97,2.49c4.29,0,6.48-3.29,6.58-9.86v-1.21c0-6.91-2.22-10.36-6.65-10.36c-4.03,0-6.21,2.98-6.54,8.94
			L119.21,213.46z"/>
		<path class="st1" d="M160.63,184.22v9.58H167v8.33h-6.36v17.63c0,1.45,0.26,2.46,0.79,3.03c0.52,0.57,1.56,0.85,3.11,0.85
			c1.19,0,2.19-0.07,3-0.21v8.58c-2.17,0.69-4.43,1.03-6.79,1.03c-4.15,0-7.21-0.97-9.19-2.92c-1.98-1.95-2.97-4.9-2.97-8.87v-19.12
			h-4.93v-8.33h4.93v-9.58H160.63z"/>
		<path class="st1" d="M188.97,232.33v-30.2h-5.61v-8.33h5.61v-3.06c0-4.39,1.3-7.8,3.9-10.22c2.6-2.42,6.24-3.63,10.94-3.63
			c1.72,0,3.6,0.25,5.65,0.75l0.04,8.83c-0.74-0.21-1.73-0.32-2.97-0.32c-3.65,0-5.47,1.57-5.47,4.7v2.96h7.54v8.33h-7.54v30.2
			H188.97z"/>
		<path class="st1" d="M207.89,212.71c0-3.85,0.75-7.27,2.25-10.27c1.5-3,3.66-5.31,6.47-6.93c2.81-1.61,6.11-2.42,9.9-2.42
			c5.79,0,10.35,1.79,13.69,5.36c3.34,3.57,5,8.43,5,14.58v0.43c0,6.01-1.67,10.77-5.02,14.3c-3.35,3.53-7.88,5.29-13.6,5.29
			c-5.5,0-9.93-1.64-13.26-4.93c-3.34-3.29-5.14-7.75-5.4-13.37L207.89,212.71z M219.94,213.46c0,3.56,0.56,6.17,1.68,7.83
			s2.78,2.49,4.97,2.49c4.29,0,6.48-3.29,6.58-9.86v-1.21c0-6.91-2.22-10.36-6.65-10.36c-4.03,0-6.21,2.98-6.54,8.94L219.94,213.46z
			"/>
		<path class="st1" d="M270.67,228.17c-2.55,3.25-5.99,4.88-10.33,4.88c-4.24,0-7.45-1.23-9.63-3.69s-3.27-5.99-3.27-10.59V193.8
			h12.05v25.04c0,3.3,1.61,4.95,4.83,4.95c2.76,0,4.73-0.98,5.9-2.96V193.8h12.12v38.53h-11.3L270.67,228.17z"/>
		<path class="st1" d="M297.61,193.8l0.39,4.52c2.67-3.49,6.35-5.23,11.05-5.23c4.03,0,7.04,1.2,9.03,3.6
			c1.99,2.4,3.02,6.01,3.09,10.83v24.82h-12.08v-24.32c0-1.95-0.39-3.38-1.18-4.29c-0.79-0.91-2.22-1.37-4.29-1.37
			c-2.36,0-4.11,0.93-5.25,2.78v27.21h-12.05V193.8H297.61z"/>
		<path class="st1" d="M323.67,212.78c0-6.1,1.32-10.91,3.97-14.42c2.65-3.51,6.34-5.27,11.08-5.27c3.46,0,6.36,1.35,8.72,4.06
			v-19.51h12.08v54.7h-10.83l-0.61-4.13c-2.48,3.23-5.62,4.84-9.44,4.84c-4.6,0-8.25-1.76-10.94-5.27
			C325.02,224.26,323.67,219.26,323.67,212.78z M335.72,213.53c0,6.84,2,10.26,6.01,10.26c2.67,0,4.58-1.12,5.72-3.35v-14.67
			c-1.1-2.28-2.98-3.42-5.65-3.42c-3.72,0-5.73,2.99-6.04,8.97L335.72,213.53z"/>
	</g>
</g>
</svg>
