<?xml version="1.0" encoding="utf-8"?>
<!-- Generator: Adobe Illustrator 23.0.3, SVG Export Plug-In . SVG Version: 6.00 Build 0)  -->
<svg version="1.1" id="Warstwa_1" xmlns="http://www.w3.org/2000/svg" xmlns:xlink="http://www.w3.org/1999/xlink" x="0px" y="0px"
	 viewBox="0 0 362.77 178.89" style="enable-background:new 0 0 362.77 178.89;" xml:space="preserve">
<style type="text/css">
	.st0{fill:#3D4A7D;}
</style>
<g>
	<path class="st0" d="M43.07,72.77c-0.72-1.33-1.37-3.28-1.93-5.85c-3.74,4.71-8.97,7.06-15.69,7.06c-6.16,0-11.39-1.86-15.69-5.58
		C5.45,64.67,3.3,60,3.3,54.36c0-7.08,2.62-12.43,7.85-16.05c5.23-3.62,12.83-5.43,22.81-5.43h6.28v-3.46c0-6.02-2.6-9.04-7.79-9.04
		c-4.83,0-7.24,2.39-7.24,7.16H4.87c0-6.31,2.69-11.43,8.06-15.37c5.37-3.94,12.22-5.91,20.55-5.91c8.33,0,14.91,2.03,19.73,6.1
		c4.83,4.06,7.3,9.64,7.42,16.72v28.91c0.08,6,1,10.58,2.78,13.76v1.03H43.07z M30.33,59.49c2.54,0,4.64-0.54,6.31-1.63
		c1.67-1.09,2.87-2.31,3.59-3.68V43.74h-5.91c-7.08,0-10.62,3.18-10.62,9.53c0,1.85,0.62,3.35,1.87,4.5
		C26.81,58.92,28.4,59.49,30.33,59.49z"/>
	<path class="st0" d="M94.15,58.29c2.86,0,5.07-0.77,6.64-2.32c1.57-1.55,2.33-3.71,2.29-6.49h19.07c0,7.16-2.56,13.03-7.69,17.62
		c-5.13,4.59-11.74,6.88-19.82,6.88c-9.5,0-16.98-2.98-22.45-8.93c-5.47-5.95-8.21-14.2-8.21-24.74v-0.84
		c0-6.6,1.22-12.42,3.65-17.47c2.43-5.05,5.94-8.93,10.53-11.65c4.59-2.72,10.02-4.07,16.29-4.07c8.49,0,15.23,2.35,20.22,7.06
		c4.99,4.71,7.48,11.08,7.48,19.13h-19.07c0-3.38-0.83-5.97-2.47-7.78c-1.65-1.81-3.86-2.72-6.64-2.72c-5.27,0-8.35,3.36-9.23,10.08
		c-0.28,2.13-0.42,5.07-0.42,8.81c0,6.56,0.79,11.1,2.35,13.64C88.24,57.02,90.73,58.29,94.15,58.29z"/>
	<path class="st0" d="M153.45,58.29c2.86,0,5.07-0.77,6.64-2.32c1.57-1.55,2.33-3.71,2.29-6.49h19.07c0,7.16-2.57,13.03-7.69,17.62
		c-5.13,4.59-11.74,6.88-19.82,6.88c-9.5,0-16.98-2.98-22.45-8.93c-5.47-5.95-8.21-14.2-8.21-24.74v-0.84
		c0-6.6,1.22-12.42,3.65-17.47c2.43-5.05,5.94-8.93,10.53-11.65c4.59-2.72,10.02-4.07,16.29-4.07c8.49,0,15.23,2.35,20.22,7.06
		s7.48,11.08,7.48,19.13h-19.07c0-3.38-0.83-5.97-2.47-7.78c-1.65-1.81-3.86-2.72-6.64-2.72c-5.27,0-8.35,3.36-9.23,10.08
		c-0.28,2.13-0.42,5.07-0.42,8.81c0,6.56,0.78,11.1,2.35,13.64C147.54,57.02,150.03,58.29,153.45,58.29z"/>
	<path class="st0" d="M216.4,73.98c-10.02,0-18.12-2.99-24.32-8.96c-6.2-5.97-9.29-13.75-9.29-23.32V40
		c0-6.68,1.24-12.57,3.71-17.68c2.47-5.11,6.08-9.06,10.83-11.86c4.75-2.8,10.38-4.19,16.9-4.19c9.17,0,16.41,2.85,21.72,8.54
		c5.31,5.69,7.97,13.63,7.97,23.81v7.91h-40.43c0.72,3.66,2.31,6.54,4.77,8.63c2.45,2.09,5.63,3.14,9.54,3.14
		c6.44,0,11.47-2.25,15.09-6.76l9.29,10.98c-2.54,3.5-6.12,6.29-10.77,8.36C226.75,72.94,221.75,73.98,216.4,73.98z M214.11,21.96
		c-5.95,0-9.5,3.94-10.62,11.83h20.52v-1.57c0.08-3.26-0.75-5.78-2.47-7.57C219.8,22.85,217.33,21.96,214.11,21.96z"/>
	<path class="st0" d="M281.3,54.42c0-1.73-0.91-3.12-2.71-4.16c-1.81-1.05-5.25-2.13-10.32-3.26c-5.07-1.13-9.25-2.6-12.55-4.44
		c-3.3-1.83-5.81-4.05-7.54-6.67c-1.73-2.61-2.59-5.61-2.59-8.99c0-5.99,2.47-10.93,7.42-14.81c4.95-3.88,11.42-5.82,19.43-5.82
		c8.61,0,15.53,1.95,20.76,5.85c5.23,3.9,7.84,9.03,7.84,15.39h-20.4c0-5.23-2.76-7.85-8.27-7.85c-2.13,0-3.92,0.59-5.37,1.78
		c-1.45,1.19-2.17,2.67-2.17,4.44c0,1.81,0.88,3.28,2.66,4.41c1.77,1.13,4.6,2.05,8.48,2.78s7.29,1.59,10.23,2.59
		c9.82,3.38,14.72,9.43,14.72,18.16c0,5.95-2.65,10.8-7.94,14.54c-5.29,3.74-12.14,5.61-20.55,5.61c-5.59,0-10.58-1.01-14.97-3.02
		c-4.39-2.01-7.81-4.75-10.26-8.21c-2.46-3.46-3.68-7.1-3.68-10.92h19.01c0.08,3.02,1.09,5.22,3.02,6.61
		c1.93,1.39,4.41,2.08,7.42,2.08c2.78,0,4.86-0.56,6.25-1.69C280.61,57.7,281.3,56.24,281.3,54.42z"/>
	<path class="st0" d="M339.86,54.42c0-1.73-0.91-3.12-2.72-4.16c-1.81-1.05-5.25-2.13-10.32-3.26c-5.07-1.13-9.25-2.6-12.55-4.44
		c-3.3-1.83-5.81-4.05-7.54-6.67c-1.73-2.61-2.59-5.61-2.59-8.99c0-5.99,2.47-10.93,7.42-14.81c4.95-3.88,11.43-5.82,19.43-5.82
		c8.61,0,15.53,1.95,20.76,5.85c5.23,3.9,7.85,9.03,7.85,15.39h-20.4c0-5.23-2.76-7.85-8.27-7.85c-2.13,0-3.92,0.59-5.37,1.78
		c-1.45,1.19-2.17,2.67-2.17,4.44c0,1.81,0.88,3.28,2.66,4.41c1.77,1.13,4.6,2.05,8.48,2.78c3.88,0.72,7.29,1.59,10.23,2.59
		c9.82,3.38,14.72,9.43,14.72,18.16c0,5.95-2.65,10.8-7.94,14.54c-5.29,3.74-12.14,5.61-20.55,5.61c-5.59,0-10.58-1.01-14.97-3.02
		c-4.39-2.01-7.81-4.75-10.26-8.21c-2.45-3.46-3.68-7.1-3.68-10.92h19.01c0.08,3.02,1.09,5.22,3.02,6.61
		c1.93,1.39,4.41,2.08,7.42,2.08c2.78,0,4.86-0.56,6.25-1.69C339.17,57.7,339.86,56.24,339.86,54.42z"/>
</g>
<g>
	<path class="st0" d="M8.63,138.49c0-10.34,2.23-18.49,6.7-24.44c4.46-5.95,10.7-8.93,18.71-8.93c5.83,0,10.74,2.29,14.72,6.88
		V78.92h20.4v92.69H50.87l-1.03-7c-4.18,5.47-9.5,8.21-15.93,8.21c-7.76,0-13.92-2.98-18.47-8.93
		C10.9,157.94,8.63,149.47,8.63,138.49z M28.96,139.75c0,11.59,3.38,17.38,10.14,17.38c4.5,0,7.72-1.89,9.66-5.67V126.6
		c-1.85-3.86-5.03-5.79-9.54-5.79c-6.28,0-9.68,5.07-10.2,15.21L28.96,139.75z"/>
	<path class="st0" d="M107.17,172.82c-10.02,0-18.12-2.99-24.32-8.96c-6.2-5.97-9.29-13.75-9.29-23.32v-1.69
		c0-6.68,1.24-12.57,3.71-17.68s6.08-9.06,10.83-11.86c4.75-2.8,10.38-4.19,16.9-4.19c9.17,0,16.41,2.85,21.72,8.54
		c5.31,5.69,7.97,13.63,7.97,23.81v7.91H94.26c0.72,3.66,2.31,6.54,4.77,8.63c2.45,2.09,5.63,3.14,9.53,3.14
		c6.44,0,11.47-2.25,15.09-6.76l9.29,10.98c-2.53,3.5-6.12,6.29-10.77,8.36C117.52,171.79,112.52,172.82,107.17,172.82z
		 M104.88,120.8c-5.95,0-9.5,3.94-10.62,11.83h20.52v-1.57c0.08-3.26-0.75-5.78-2.47-7.57C110.57,121.7,108.1,120.8,104.88,120.8z"
		/>
	<path class="st0" d="M157.59,106.32l0.66,7.66c4.51-5.91,10.72-8.87,18.65-8.87c6.8,0,11.88,2.03,15.24,6.1
		c3.36,4.06,5.1,10.18,5.22,18.34v42.06h-20.4V130.4c0-3.3-0.66-5.72-1.99-7.27c-1.33-1.55-3.74-2.32-7.24-2.32
		c-3.98,0-6.94,1.57-8.87,4.71v46.1h-20.34v-65.29H157.59z"/>
	<path class="st0" d="M203.26,89.49c0-2.9,1.05-5.27,3.14-7.12c2.09-1.85,4.81-2.78,8.15-2.78c3.34,0,6.05,0.93,8.15,2.78
		c2.09,1.85,3.14,4.22,3.14,7.12s-1.05,5.27-3.14,7.12c-2.09,1.85-4.81,2.78-8.15,2.78c-3.34,0-6.05-0.92-8.15-2.78
		C204.31,94.76,203.26,92.38,203.26,89.49z M224.86,171.62h-20.4v-65.29h20.4V171.62z"/>
	<path class="st0" d="M263.12,172.82c-10.02,0-18.13-2.99-24.32-8.96c-6.2-5.97-9.29-13.75-9.29-23.32v-1.69
		c0-6.68,1.24-12.57,3.71-17.68c2.47-5.11,6.08-9.06,10.83-11.86c4.75-2.8,10.38-4.19,16.9-4.19c9.17,0,16.41,2.85,21.72,8.54
		c5.31,5.69,7.97,13.63,7.97,23.81v7.91H250.2c0.72,3.66,2.31,6.54,4.77,8.63c2.45,2.09,5.63,3.14,9.54,3.14
		c6.44,0,11.47-2.25,15.09-6.76l9.29,10.98c-2.54,3.5-6.12,6.29-10.77,8.36C273.47,171.79,268.47,172.82,263.12,172.82z
		 M260.82,120.8c-5.95,0-9.5,3.94-10.62,11.83h20.52v-1.57c0.08-3.26-0.75-5.78-2.47-7.57C266.52,121.7,264.04,120.8,260.82,120.8z"
		/>
	<path class="st0" d="M291.98,138.49c0-10.34,2.23-18.49,6.7-24.44c4.46-5.95,10.7-8.93,18.71-8.93c5.83,0,10.74,2.29,14.72,6.88
		V78.92h20.4v92.69h-18.28l-1.03-7c-4.18,5.47-9.5,8.21-15.93,8.21c-7.76,0-13.92-2.98-18.47-8.93
		C294.26,157.94,291.98,149.47,291.98,138.49z M312.32,139.75c0,11.59,3.38,17.38,10.14,17.38c4.5,0,7.72-1.89,9.66-5.67V126.6
		c-1.85-3.86-5.03-5.79-9.54-5.79c-6.28,0-9.68,5.07-10.2,15.21L312.32,139.75z"/>
</g>
</svg>
