<?xml version="1.0" encoding="utf-8"?>
<!-- Generator: Adobe Illustrator 23.0.3, SVG Export Plug-In . SVG Version: 6.00 Build 0)  -->
<svg version="1.1" id="Warstwa_1" xmlns="http://www.w3.org/2000/svg" xmlns:xlink="http://www.w3.org/1999/xlink" x="0px" y="0px"
	 viewBox="0 0 188.72 57.17" style="enable-background:new 0 0 188.72 57.17;" xml:space="preserve">
<style type="text/css">
	.st0{fill:#B3B9C7;}
</style>
<g>
	<path class="st0" d="M15.74,19.66h-4.28v-7.43H5.11v7.43H0.8V1.86h4.31v7.07h6.35V1.86h4.28V19.66z"/>
	<path class="st0" d="M17.14,12.92c0-1.32,0.26-2.5,0.77-3.53c0.51-1.03,1.26-1.82,2.22-2.38c0.96-0.55,2.1-0.83,3.4-0.83
		c1.99,0,3.56,0.61,4.7,1.84c1.15,1.23,1.72,2.9,1.72,5.01v0.15c0,2.06-0.57,3.7-1.72,4.91c-1.15,1.21-2.71,1.82-4.67,1.82
		c-1.89,0-3.41-0.56-4.55-1.69c-1.15-1.13-1.76-2.66-1.85-4.59L17.14,12.92z M21.28,13.18c0,1.22,0.19,2.12,0.58,2.69
		c0.38,0.57,0.95,0.86,1.71,0.86c1.47,0,2.23-1.13,2.26-3.39v-0.42c0-2.37-0.76-3.56-2.28-3.56c-1.38,0-2.13,1.02-2.25,3.07
		L21.28,13.18z"/>
	<path class="st0" d="M39,18.23c-0.88,1.12-2.06,1.68-3.55,1.68c-1.46,0-2.56-0.42-3.31-1.27s-1.12-2.06-1.12-3.64V6.43h4.14v8.6
		c0,1.13,0.55,1.7,1.66,1.7c0.95,0,1.62-0.34,2.03-1.02V6.43H43v13.23h-3.88L39,18.23z"/>
	<path class="st0" d="M51.59,15.94c0-0.35-0.18-0.63-0.55-0.84s-1.07-0.43-2.1-0.66c-1.03-0.23-1.88-0.53-2.55-0.9
		s-1.18-0.82-1.53-1.35c-0.35-0.53-0.53-1.14-0.53-1.82c0-1.21,0.5-2.22,1.51-3c1.01-0.79,2.32-1.18,3.95-1.18
		c1.75,0,3.16,0.4,4.22,1.19c1.06,0.79,1.6,1.83,1.6,3.12h-4.15c0-1.06-0.56-1.59-1.68-1.59c-0.43,0-0.8,0.12-1.09,0.36
		c-0.29,0.24-0.44,0.54-0.44,0.9c0,0.37,0.18,0.66,0.54,0.89c0.36,0.23,0.93,0.42,1.72,0.56c0.79,0.15,1.48,0.32,2.08,0.53
		c2,0.69,3,1.91,3,3.68c0,1.21-0.54,2.19-1.61,2.95s-2.47,1.14-4.18,1.14c-1.14,0-2.15-0.2-3.04-0.61
		c-0.89-0.41-1.59-0.96-2.09-1.66c-0.5-0.7-0.75-1.44-0.75-2.21h3.87c0.02,0.61,0.22,1.06,0.61,1.34s0.9,0.42,1.51,0.42
		c0.56,0,0.99-0.11,1.27-0.34C51.45,16.61,51.59,16.31,51.59,15.94z"/>
	<path class="st0" d="M61.78,3.14v3.29h2.19v2.86h-2.19v6.05c0,0.5,0.09,0.84,0.27,1.04c0.18,0.2,0.54,0.29,1.07,0.29
		c0.41,0,0.75-0.02,1.03-0.07v2.95c-0.74,0.24-1.52,0.35-2.33,0.35c-1.42,0-2.48-0.33-3.15-1c-0.68-0.67-1.02-1.68-1.02-3.04V9.29
		h-1.69V6.43h1.69V3.14H61.78z"/>
	<path class="st0" d="M64.29,12.92c0-1.32,0.26-2.5,0.77-3.53c0.51-1.03,1.26-1.82,2.22-2.38c0.96-0.55,2.1-0.83,3.4-0.83
		c1.99,0,3.56,0.61,4.7,1.84c1.15,1.23,1.72,2.9,1.72,5.01v0.15c0,2.06-0.57,3.7-1.72,4.91c-1.15,1.21-2.71,1.82-4.67,1.82
		c-1.89,0-3.41-0.56-4.55-1.69c-1.15-1.13-1.76-2.66-1.85-4.59L64.29,12.92z M68.42,13.18c0,1.22,0.19,2.12,0.58,2.69
		c0.38,0.57,0.95,0.86,1.71,0.86c1.47,0,2.23-1.13,2.26-3.39v-0.42c0-2.37-0.76-3.56-2.28-3.56c-1.38,0-2.13,1.02-2.25,3.07
		L68.42,13.18z"/>
	<path class="st0" d="M82.08,6.43l0.13,1.55c0.92-1.2,2.18-1.8,3.79-1.8c1.38,0,2.42,0.41,3.1,1.23c0.68,0.82,1.04,2.06,1.06,3.72
		v8.52h-4.15v-8.35c0-0.67-0.13-1.16-0.41-1.47c-0.27-0.31-0.76-0.47-1.47-0.47c-0.81,0-1.41,0.32-1.8,0.95v9.34H78.2V6.43H82.08z"
		/>
	<path class="st0" d="M93.07,24.45l-2.09-0.98l0.42-0.83c0.57-1.06,0.87-2.07,0.9-3.03v-3.06h3.31l-0.01,2.65
		c-0.01,0.94-0.25,1.89-0.72,2.86C94.4,23.04,93.79,23.83,93.07,24.45z"/>
	<path class="st0" d="M114.86,14.23l1.34-7.8h3.96l-3.13,13.23h-3.5l-2.2-7.85l-2.21,7.85h-3.5L102.5,6.43h3.96l1.31,7.98l2.11-7.98
		h2.88L114.86,14.23z"/>
	<path class="st0" d="M126.94,19.91c-2.04,0-3.69-0.61-4.95-1.82c-1.26-1.21-1.89-2.79-1.89-4.73v-0.34c0-1.35,0.25-2.55,0.75-3.58
		c0.5-1.04,1.24-1.84,2.2-2.4c0.97-0.57,2.11-0.85,3.44-0.85c1.87,0,3.34,0.58,4.42,1.73c1.08,1.15,1.62,2.76,1.62,4.82v1.6h-8.22
		c0.15,0.74,0.47,1.32,0.97,1.75c0.5,0.42,1.15,0.64,1.94,0.64c1.31,0,2.33-0.46,3.07-1.37l1.89,2.23
		c-0.52,0.71-1.25,1.27-2.19,1.69S128.03,19.91,126.94,19.91z M126.47,9.36c-1.21,0-1.93,0.8-2.16,2.4h4.17v-0.32
		c0.02-0.66-0.15-1.17-0.5-1.53C127.63,9.55,127.13,9.36,126.47,9.36z"/>
	<path class="st0" d="M143.25,7.85c0.88-1.11,2.01-1.66,3.39-1.66c1.46,0,2.57,0.43,3.31,1.3c0.74,0.86,1.12,2.14,1.14,3.83v8.35
		h-4.15v-8.25c0-0.7-0.14-1.22-0.43-1.55c-0.29-0.33-0.77-0.5-1.46-0.5c-0.85,0-1.45,0.27-1.8,0.81v9.49h-4.14V0.88h4.14V7.85z"/>
	<path class="st0" d="M160.22,19.66c-0.15-0.27-0.28-0.66-0.39-1.19c-0.76,0.95-1.83,1.43-3.19,1.43c-1.25,0-2.32-0.38-3.19-1.13
		c-0.88-0.75-1.31-1.7-1.31-2.84c0-1.44,0.53-2.52,1.6-3.25c1.06-0.73,2.61-1.1,4.64-1.1h1.28v-0.7c0-1.22-0.53-1.83-1.58-1.83
		c-0.98,0-1.47,0.48-1.47,1.45h-4.14c0-1.28,0.55-2.32,1.64-3.11c1.09-0.8,2.49-1.2,4.18-1.2c1.69,0,3.03,0.41,4.01,1.23
		c0.98,0.82,1.49,1.95,1.51,3.39v5.86c0.02,1.21,0.2,2.14,0.56,2.79v0.21H160.22z M157.63,16.97c0.52,0,0.94-0.11,1.28-0.33
		c0.34-0.22,0.58-0.47,0.73-0.75v-2.12h-1.2c-1.44,0-2.16,0.64-2.16,1.93c0,0.38,0.13,0.68,0.38,0.91S157.24,16.97,157.63,16.97z"/>
	<path class="st0" d="M170.25,14.76l2.1-8.33h4.36l-4.33,13.23h-4.22l-4.33-13.23h4.37L170.25,14.76z"/>
	<path class="st0" d="M183.13,19.91c-2.04,0-3.69-0.61-4.95-1.82c-1.26-1.21-1.89-2.79-1.89-4.73v-0.34c0-1.35,0.25-2.55,0.75-3.58
		c0.5-1.04,1.24-1.84,2.2-2.4c0.97-0.57,2.11-0.85,3.44-0.85c1.87,0,3.34,0.58,4.42,1.73c1.08,1.15,1.62,2.76,1.62,4.82v1.6h-8.22
		c0.15,0.74,0.47,1.32,0.97,1.75c0.5,0.42,1.15,0.64,1.94,0.64c1.31,0,2.33-0.46,3.07-1.37l1.89,2.23
		c-0.52,0.71-1.25,1.27-2.19,1.69S184.21,19.91,183.13,19.91z M182.66,9.36c-1.21,0-1.93,0.8-2.16,2.4h4.17v-0.32
		c0.02-0.66-0.15-1.17-0.5-1.53C183.82,9.55,183.31,9.36,182.66,9.36z"/>
	<path class="st0" d="M8.09,49.71c-0.15-0.27-0.28-0.66-0.39-1.19c-0.76,0.95-1.83,1.43-3.19,1.43c-1.25,0-2.32-0.38-3.19-1.13
		C0.44,48.07,0,47.12,0,45.98c0-1.44,0.53-2.52,1.6-3.25c1.06-0.73,2.61-1.1,4.64-1.1h1.28v-0.7c0-1.22-0.53-1.83-1.58-1.83
		c-0.98,0-1.47,0.48-1.47,1.45H0.32c0-1.28,0.55-2.32,1.64-3.11c1.09-0.8,2.49-1.2,4.18-1.2c1.69,0,3.03,0.41,4.01,1.23
		c0.98,0.82,1.49,1.95,1.51,3.39v5.86c0.02,1.21,0.2,2.14,0.56,2.79v0.21H8.09z M5.5,47.02c0.52,0,0.94-0.11,1.28-0.33
		c0.34-0.22,0.58-0.47,0.73-0.75v-2.12h-1.2c-1.44,0-2.16,0.64-2.16,1.93c0,0.38,0.13,0.68,0.38,0.91S5.11,47.02,5.5,47.02z"/>
	<path class="st0" d="M31.28,43.2c0,2.05-0.46,3.69-1.39,4.92s-2.18,1.84-3.76,1.84c-1.22,0-2.22-0.44-3.01-1.33v6.18h-4.14V36.48
		h3.87l0.12,1.22c0.79-0.98,1.84-1.47,3.13-1.47c1.64,0,2.91,0.6,3.82,1.8s1.36,2.86,1.36,4.96V43.2z M27.15,42.94
		c0-2.35-0.69-3.52-2.06-3.52c-0.98,0-1.64,0.35-1.96,1.05v5.21c0.36,0.73,1.02,1.1,1.99,1.1c1.32,0,2-1.13,2.04-3.4V42.94z"/>
	<path class="st0" d="M40.51,40.21l-1.36-0.1c-1.3,0-2.14,0.41-2.5,1.22v8.38H32.5V36.48h3.88l0.14,1.7c0.7-1.3,1.67-1.94,2.91-1.94
		c0.44,0,0.83,0.05,1.15,0.15L40.51,40.21z"/>
	<path class="st0" d="M40.77,42.98c0-1.32,0.26-2.5,0.77-3.53c0.51-1.03,1.26-1.82,2.22-2.38c0.96-0.55,2.1-0.83,3.4-0.83
		c1.99,0,3.56,0.61,4.7,1.84c1.15,1.23,1.72,2.9,1.72,5.01v0.15c0,2.06-0.57,3.7-1.72,4.91c-1.15,1.21-2.71,1.82-4.67,1.82
		c-1.89,0-3.41-0.56-4.55-1.69c-1.15-1.13-1.76-2.66-1.85-4.59L40.77,42.98z M44.91,43.23c0,1.22,0.19,2.12,0.58,2.69
		c0.38,0.57,0.95,0.86,1.71,0.86c1.47,0,2.23-1.13,2.26-3.39v-0.42c0-2.37-0.76-3.56-2.28-3.56c-1.38,0-2.13,1.02-2.25,3.07
		L44.91,43.23z"/>
	<path class="st0" d="M67.03,43.21c0,2.17-0.45,3.84-1.35,5c-0.9,1.17-2.17,1.75-3.8,1.75c-1.35,0-2.44-0.53-3.27-1.6l-0.17,1.36
		h-3.71V30.93h4.14v6.62c0.77-0.87,1.76-1.31,2.98-1.31c1.65,0,2.93,0.59,3.83,1.77c0.9,1.18,1.35,2.85,1.35,4.99V43.21z
		 M62.88,42.94c0-1.27-0.17-2.17-0.51-2.72c-0.34-0.54-0.86-0.81-1.57-0.81c-0.93,0-1.58,0.35-1.94,1.06v5.25
		c0.35,0.7,1.01,1.05,1.96,1.05c0.97,0,1.59-0.47,1.85-1.42C62.81,44.9,62.88,44.09,62.88,42.94z"/>
	<path class="st0" d="M72.55,49.71H68.4V30.93h4.15V49.71z"/>
	<path class="st0" d="M80.69,49.96c-2.04,0-3.69-0.61-4.95-1.82c-1.26-1.21-1.89-2.79-1.89-4.73v-0.34c0-1.35,0.25-2.55,0.75-3.58
		c0.5-1.04,1.24-1.84,2.2-2.4c0.97-0.57,2.11-0.85,3.44-0.85c1.87,0,3.34,0.58,4.42,1.73c1.08,1.15,1.62,2.76,1.62,4.82v1.6h-8.22
		c0.15,0.74,0.47,1.32,0.97,1.75c0.5,0.42,1.15,0.64,1.94,0.64c1.31,0,2.33-0.46,3.07-1.37l1.89,2.23
		c-0.52,0.71-1.25,1.27-2.19,1.69S81.78,49.96,80.69,49.96z M80.23,39.42c-1.21,0-1.93,0.8-2.16,2.4h4.17V41.5
		c0.02-0.66-0.15-1.17-0.5-1.53C81.38,39.6,80.88,39.42,80.23,39.42z"/>
	<path class="st0" d="M91.27,36.48l0.14,1.55c0.94-1.2,2.21-1.8,3.79-1.8c1.68,0,2.81,0.66,3.4,1.99c0.9-1.33,2.2-1.99,3.9-1.99
		c2.69,0,4.08,1.62,4.15,4.87v8.61h-4.15v-8.35c0-0.68-0.12-1.17-0.34-1.48c-0.23-0.31-0.65-0.46-1.25-0.46
		c-0.82,0-1.43,0.36-1.83,1.09l0.01,0.17v9.04h-4.15v-8.33c0-0.69-0.11-1.19-0.33-1.5c-0.22-0.31-0.64-0.46-1.26-0.46
		c-0.79,0-1.4,0.36-1.82,1.09v9.21h-4.14V36.48H91.27z"/>
	<path class="st0" d="M110.77,45.71c0.65,0,1.2,0.19,1.63,0.58c0.43,0.39,0.65,0.88,0.65,1.49c0,0.6-0.22,1.1-0.65,1.49
		s-0.98,0.58-1.63,0.58c-0.66,0-1.21-0.2-1.64-0.59c-0.43-0.39-0.64-0.88-0.64-1.48c0-0.59,0.21-1.09,0.64-1.48
		C109.56,45.91,110.1,45.71,110.77,45.71z"/>
	<path class="st0" d="M117.21,45.71c0.65,0,1.2,0.19,1.63,0.58c0.43,0.39,0.65,0.88,0.65,1.49c0,0.6-0.22,1.1-0.65,1.49
		s-0.98,0.58-1.63,0.58c-0.66,0-1.21-0.2-1.64-0.59c-0.43-0.39-0.64-0.88-0.64-1.48c0-0.59,0.21-1.09,0.64-1.48
		C116,45.91,116.55,45.71,117.21,45.71z"/>
	<path class="st0" d="M123.66,45.71c0.65,0,1.2,0.19,1.63,0.58c0.43,0.39,0.65,0.88,0.65,1.49c0,0.6-0.22,1.1-0.65,1.49
		s-0.98,0.58-1.63,0.58c-0.66,0-1.21-0.2-1.64-0.59c-0.43-0.39-0.64-0.88-0.64-1.48c0-0.59,0.21-1.09,0.64-1.48
		C122.45,45.91,122.99,45.71,123.66,45.71z"/>
</g>
</svg>
