<?xml version="1.0" encoding="utf-8"?>
<!-- Generator: Adobe Illustrator 23.0.3, SVG Export Plug-In . SVG Version: 6.00 Build 0)  -->
<svg version="1.1" id="Warstwa_1" xmlns="http://www.w3.org/2000/svg" xmlns:xlink="http://www.w3.org/1999/xlink" x="0px" y="0px"
	 viewBox="0 0 272.22 366.49" style="enable-background:new 0 0 272.22 366.49;" xml:space="preserve">
<style type="text/css">
	.st0{fill:#E05668;}
</style>
<g id="surface1">
	<path class="st0" d="M243.66,141.57v-33.57c0-59.06-48.05-107.11-107.11-107.11S29.45,48.95,29.45,108.01v33.57
		c-16.28,3.32-28.56,17.74-28.56,34.98v40.54c0,3.94,3.2,7.14,7.14,7.14s7.14-3.2,7.14-7.14v-40.54c0-11.81,9.61-21.42,21.42-21.42
		h199.93c11.81,0,21.42,9.61,21.42,21.42v154.23c0,9.31-5.97,17.25-14.28,20.19v-43.04c0-3.94-3.2-7.14-7.14-7.14
		s-7.14,3.2-7.14,7.14v44.27H36.59c-11.81,0-21.42-9.61-21.42-21.42v-56.41c0-3.94-3.2-7.14-7.14-7.14s-7.14,3.2-7.14,7.14v56.41
		c0,19.69,16.02,35.7,35.7,35.7h199.93c19.69,0,35.7-16.02,35.7-35.7V176.56C272.22,159.32,259.94,144.89,243.66,141.57z
		 M82.29,140.85v-32.85c0-29.92,24.34-54.27,54.27-54.27s54.27,24.34,54.27,54.27v32.85H82.29z M205.1,140.85v-32.85
		c0-37.8-30.75-68.55-68.55-68.55s-68.55,30.75-68.55,68.55v32.85H43.73v-32.85c0-51.18,41.64-92.82,92.82-92.82
		s92.82,41.64,92.82,92.82v32.85H205.1z"/>
	<path class="st0" d="M8.03,252.59c1.88,0,3.72-0.76,5.05-2.09c1.33-1.33,2.09-3.17,2.09-5.05c0-1.88-0.76-3.72-2.09-5.05
		c-1.33-1.33-3.17-2.09-5.05-2.09s-3.72,0.76-5.05,2.09c-1.33,1.32-2.09,3.17-2.09,5.05c0,1.88,0.76,3.72,2.09,5.05
		C4.31,251.83,6.15,252.59,8.03,252.59z"/>
	<path class="st0" d="M136.55,327.93c11.81,0,21.42-9.61,21.42-21.42v-37.92c10.73-7.1,17.23-19.04,17.23-32.12
		c0-21.26-17.3-38.56-38.56-38.56c-21.26,0-38.56,17.3-38.56,38.56c0,12.99,6.43,24.88,17.04,32v38.04
		C115.13,318.32,124.74,327.93,136.55,327.93z M112.37,236.47c0-13.39,10.89-24.28,24.28-24.28c13.39,0,24.28,10.89,24.28,24.28
		c0,9.19-5.1,17.49-13.32,21.66c-2.4,1.22-3.91,3.68-3.91,6.37v42.01c0,3.94-3.2,7.14-7.14,7.14c-3.94,0-7.14-3.2-7.14-7.14v-42.1
		c0-2.67-1.49-5.12-3.87-6.35C117.42,253.87,112.37,245.6,112.37,236.47z"/>
	<path class="st0" d="M236.52,285.8c1.89,0,3.72-0.76,5.05-2.09c1.33-1.33,2.09-3.16,2.09-5.05c0-1.89-0.76-3.72-2.09-5.05
		c-1.33-1.33-3.16-2.09-5.05-2.09c-1.88,0-3.72,0.76-5.05,2.09c-1.33,1.33-2.09,3.17-2.09,5.05c0,1.88,0.76,3.72,2.09,5.05
		C232.8,285.04,234.64,285.8,236.52,285.8z"/>
</g>
</svg>
