<?xml version="1.0" encoding="utf-8"?>
<!-- Generator: Adobe Illustrator 23.0.3, SVG Export Plug-In . SVG Version: 6.00 Build 0)  -->
<svg version="1.1" id="Warstwa_1" xmlns="http://www.w3.org/2000/svg" xmlns:xlink="http://www.w3.org/1999/xlink" x="0px" y="0px"
	 viewBox="0 0 191.4 67.6" style="enable-background:new 0 0 191.4 67.6;" xml:space="preserve">
<style type="text/css">
	.st0{fill:#FFFFFF;}
	.st1{fill:#EE202E;}
</style>
<title>mobile-logo-v2</title>
<g>
	<g id="Layer_1">
		<path class="st0" d="M0,14.8c2.9-1.4,7.9-2.2,12.5-2.2c2.6-0.1,5.1,0.3,7.6,0.9L18.9,20c-2-0.6-4-0.9-6.1-0.8
			c-2-0.1-4,0.2-5.9,0.8v30.8H0V14.8z"/>
		<path class="st0" d="M55.4,34.7H30.8V35c0,6.6,4.1,9.9,11.4,9.9c4,0,8-0.8,11.6-2.5l1,6.5c-4,1.7-8.4,2.5-12.7,2.5
			c-12.3,0-18.4-6-18.4-19.4c0-10.9,4.1-19.7,16.5-19.7c10.2,0,15.9,5.6,15.9,16.7C56.1,31,55.9,32.9,55.4,34.7 M30.8,28.9h18.7
			v-0.5c0-6.8-3.5-9.9-9.4-9.9s-9.2,2.9-9.2,9.9L30.8,28.9z"/>
		<path class="st0" d="M64.1,0H71v38.8c0,4.8,1.3,6,3.7,6c1,0,2-0.2,3-0.5l1,6.3c-1.5,0.6-3.1,0.8-4.7,0.8c-5.6,0-10-3-10-11.3
			L64.1,0z"/>
		<path class="st0" d="M113,49.3c-4.8,1.5-9.7,2.3-14.7,2.2c-9.6,0-15.3-3.3-15.3-11.7s6.1-11.6,15.8-11.6h7.2v-3.3
			c0-4.5-3.3-6-8.8-6c-3.5,0-7.1,0.6-10.4,1.8l-1-6.4c3.8-1.1,7.7-1.7,11.6-1.7c8.9,0,15.4,3.3,15.4,13L113,49.3L113,49.3z
			 M106.1,33.6h-7.2c-6,0-9,1.6-9,6.1c0,4.9,3.2,5.9,8.1,5.9c2.7,0.1,5.4-0.3,8-0.9V33.6H106.1z"/>
		<path class="st0" d="M136.7,42l10.9-28.7h7.2l-14.3,37.5c-3.3,8.8-8.3,17-18.7,16.7l-1.5-6.5c5.1,0.3,10.6-3.5,13.2-10.2
			l-16.3-37.6h7.3L136.7,42z"/>
		<path class="st0" d="M160.6,14.8c2.9-1.4,7.9-2.2,12.5-2.2c2.6-0.1,5.1,0.3,7.6,0.9l-1.2,6.5c-2-0.6-4-0.9-6.1-0.8
			c-2-0.1-4,0.2-5.9,0.8v30.8h-6.9L160.6,14.8z"/>
		<path class="st1" d="M186,40.8c3,0,5.4,2.4,5.4,5.3c0,3-2.4,5.4-5.3,5.4c-3,0-5.4-2.4-5.4-5.3c0,0,0,0,0,0
			C180.6,43.2,183,40.8,186,40.8L186,40.8"/>
	</g>
</g>
</svg>
