<svg xmlns="http://www.w3.org/2000/svg" width="67.51mm" height="23.84mm" viewBox="0 0 191.37 67.59"><defs><style>.cls-1{fill:#222;}.cls-2{fill:#ee202e;}</style></defs><title>mobile-logo-v2</title><g id="Warstwa_2" data-name="Warstwa 2"><g id="Layer_1" data-name="Layer 1"><path class="cls-1" d="M0,14.82c2.93-1.38,7.87-2.23,12.49-2.23a26.83,26.83,0,0,1,7.56.92L18.9,20a21.85,21.85,0,0,0-6.1-.85A16.16,16.16,0,0,0,6.94,20V50.84H0Z"/><path class="cls-1" d="M55.42,34.72H30.82V35c0,6.64,4.08,9.95,11.41,9.95a28.47,28.47,0,0,0,11.65-2.46l1,6.55a32,32,0,0,1-12.72,2.47c-12.27,0-18.44-6-18.44-19.36,0-10.87,4.09-19.67,16.51-19.67,10.18,0,15.89,5.64,15.89,16.66a21.4,21.4,0,0,1-.7,5.55m-24.6-5.78H49.48v-.46c0-6.79-3.55-9.88-9.41-9.88s-9.25,2.94-9.25,9.88Z"/><path class="cls-1" d="M64.05,0H71V38.81c0,4.78,1.31,6,3.7,6a7.33,7.33,0,0,0,3-.54l1,6.32a12.25,12.25,0,0,1-4.7.77c-5.63,0-10-3-10-11.26Z"/><path class="cls-1" d="M113,49.3A48.35,48.35,0,0,1,98.3,51.54C88.66,51.54,83,48.22,83,39.81s6.09-11.64,15.81-11.64h7.25V24.85c0-4.47-3.32-6-8.79-6a31,31,0,0,0-10.42,1.78l-1-6.4a43.81,43.81,0,0,1,11.65-1.7c8.87,0,15.42,3.32,15.42,13V49.3Zm-6.86-15.73H98.92c-6,0-9,1.62-9,6.09,0,4.86,3.24,5.94,8.1,5.94a29.89,29.89,0,0,0,8-.93V33.57Z"/><path class="cls-1" d="M136.73,42l10.87-28.7h7.25L140.51,50.84c-3.32,8.8-8.33,17-18.74,16.74l-1.55-6.48c5.09.31,10.65-3.54,13.19-10.25L117.06,13.28h7.33Z"/><path class="cls-1" d="M160.61,14.82c2.92-1.38,7.86-2.23,12.49-2.23a26.93,26.93,0,0,1,7.56.92L179.5,20a21.7,21.7,0,0,0-6.09-.85,16.26,16.26,0,0,0-5.87.85V50.84h-6.93Z"/><path class="cls-2" d="M186,40.83a5.36,5.36,0,1,1-5.35,5.35A5.35,5.35,0,0,1,186,40.83"/></g></g></svg>